<svg width="33" height="23" viewBox="0 0 33 23" fill="none" xmlns="http://www.w3.org/2000/svg">
<path d="M31.1501 9.58337H1.73564C0.77707 9.58337 0 10.3986 0 11.4042V11.5959C0 12.6015 0.77707 13.4167 1.73564 13.4167H31.1501C32.1086 13.4167 32.8857 12.6015 32.8857 11.5959V11.4042C32.8857 10.3986 32.1086 9.58337 31.1501 9.58337Z" fill="black"/>
<path d="M31.1501 19.1667H1.73564C0.77707 19.1667 0 19.9819 0 20.9875V21.1792C0 22.1848 0.77707 23 1.73564 23H31.1501C32.1086 23 32.8857 22.1848 32.8857 21.1792V20.9875C32.8857 19.9819 32.1086 19.1667 31.1501 19.1667Z" fill="black"/>
<path d="M31.1501 0H1.73564C0.77707 0 0 0.815214 0 1.82083V2.0125C0 3.01812 0.77707 3.83333 1.73564 3.83333H31.1501C32.1086 3.83333 32.8857 3.01812 32.8857 2.0125V1.82083C32.8857 0.815214 32.1086 0 31.1501 0Z" fill="black"/>
</svg>
